<svg width="72" height="72" viewBox="0 0 72 72" fill="none" xmlns="http://www.w3.org/2000/svg">
<path fill-rule="evenodd" clip-rule="evenodd" d="M29.752 43.7007V31.3901H32.9915V43.7225H29.752V43.7007Z" fill="white"/>
<path fill-rule="evenodd" clip-rule="evenodd" d="M42.4358 34.0973H39.4627V39.1204C39.4627 39.6206 39.4842 39.9467 39.5058 40.1642C39.5273 40.3599 39.6135 40.5339 39.7643 40.6861C39.9151 40.8383 40.1521 40.9035 40.4753 40.9035L42.3281 40.86L42.4789 43.4694C41.4017 43.7086 40.5614 43.8391 40.0013 43.8391C38.5363 43.8391 37.5452 43.5129 37.0281 42.8388C36.4895 42.1865 36.231 40.9688 36.231 39.1857V27.9H39.4842V31.2922H42.4573V34.0973H42.4358ZM25.0298 34.997C24.4616 34.997 23.9808 34.8045 23.6092 34.4197C23.2377 34.0348 23.041 33.5644 23.041 33.0084C23.041 32.4525 23.2377 31.9821 23.5874 31.5972C23.9589 31.2124 24.4397 31.0413 25.0079 31.0413C25.5762 31.0413 26.057 31.2337 26.4285 31.6186C26.8 32.0035 26.9749 32.4739 26.9749 33.0512C26.9749 33.6285 26.8 34.0776 26.4285 34.4624C26.0788 34.8045 25.6199 34.997 25.0298 34.997Z" fill="white"/>
<mask id="path-3-inside-1_18942_36409" fill="white">
<path fill-rule="evenodd" clip-rule="evenodd" d="M50.2203 3.59998H21.4203V21.42H3.59961V50.22H21.4203V68.4H50.2203V50.22H68.3996V21.42H50.2203V3.59998Z"/>
</mask>
<path d="M21.4203 3.59998V1.59998H19.4203V3.59998H21.4203ZM50.2203 3.59998H52.2203V1.59998H50.2203V3.59998ZM21.4203 21.42V23.42H23.4203V21.42H21.4203ZM3.59961 21.42V19.42H1.59961V21.42H3.59961ZM3.59961 50.22H1.59961V52.22H3.59961V50.22ZM21.4203 50.22H23.4203V48.22H21.4203V50.22ZM21.4203 68.4H19.4203V70.4H21.4203V68.4ZM50.2203 68.4V70.4H52.2203V68.4H50.2203ZM50.2203 50.22V48.22H48.2203V50.22H50.2203ZM68.3996 50.22V52.22H70.3996V50.22H68.3996ZM68.3996 21.42H70.3996V19.42H68.3996V21.42ZM50.2203 21.42H48.2203V23.42H50.2203V21.42ZM21.4203 5.59998H50.2203V1.59998H21.4203V5.59998ZM23.4203 21.42V3.59998H19.4203V21.42H23.4203ZM3.59961 23.42H21.4203V19.42H3.59961V23.42ZM5.59961 50.22V21.42H1.59961V50.22H5.59961ZM21.4203 48.22H3.59961V52.22H21.4203V48.22ZM23.4203 68.4V50.22H19.4203V68.4H23.4203ZM50.2203 66.4H21.4203V70.4H50.2203V66.4ZM48.2203 50.22V68.4H52.2203V50.22H48.2203ZM68.3996 48.22H50.2203V52.22H68.3996V48.22ZM66.3996 21.42V50.22H70.3996V21.42H66.3996ZM50.2203 23.42H68.3996V19.42H50.2203V23.42ZM48.2203 3.59998V21.42H52.2203V3.59998H48.2203Z" fill="white" mask="url(#path-3-inside-1_18942_36409)"/>
</svg>
