<svg width="24" height="24" viewBox="0 0 24 24" fill="none" xmlns="http://www.w3.org/2000/svg">
<path d="M11.6715 7.21406C10.7249 7.21406 9.79962 7.49475 9.01258 8.02063C8.22554 8.54651 7.61212 9.29397 7.24989 10.1685C6.88766 11.043 6.79288 12.0053 6.97755 12.9336C7.16221 13.862 7.61802 14.7148 8.28734 15.3841C8.95666 16.0534 9.80943 16.5092 10.7378 16.6939C11.6662 16.8786 12.6285 16.7838 13.503 16.4216C14.3775 16.0593 15.1249 15.4459 15.6508 14.6589C16.1767 13.8718 16.4574 12.9465 16.4574 12C16.4584 11.3712 16.3353 10.7484 16.0951 10.1673C15.8549 9.58621 15.5024 9.05823 15.0578 8.61362C14.6132 8.16901 14.0852 7.81652 13.5041 7.57636C12.923 7.33619 12.3003 7.21307 11.6715 7.21406ZM11.6715 15.1114C11.0561 15.1114 10.4545 14.9289 9.94285 14.587C9.43117 14.2452 9.03237 13.7592 8.79687 13.1907C8.56137 12.6221 8.49975 11.9965 8.61981 11.3929C8.73987 10.7894 9.03621 10.235 9.47135 9.79983C9.9065 9.36468 10.4609 9.06834 11.0645 8.94829C11.668 8.82823 12.2936 8.88985 12.8622 9.12535C13.4307 9.36085 13.9167 9.75965 14.2586 10.2713C14.6005 10.783 14.7829 11.3846 14.7829 12C14.7814 12.8247 14.4531 13.6152 13.8699 14.1984C13.2867 14.7816 12.4962 15.1099 11.6715 15.1114ZM17.7694 7.01829C17.7694 7.23908 17.704 7.4549 17.5813 7.63847C17.4587 7.82205 17.2843 7.96512 17.0803 8.04961C16.8764 8.1341 16.6519 8.15621 16.4354 8.11314C16.2188 8.07007 16.0199 7.96375 15.8638 7.80763C15.7077 7.65152 15.6014 7.45261 15.5583 7.23607C15.5152 7.01953 15.5373 6.79508 15.6218 6.59111C15.7063 6.38713 15.8494 6.21279 16.033 6.09013C16.2165 5.96747 16.4324 5.902 16.6532 5.902C16.7998 5.90167 16.9451 5.93032 17.0807 5.9863C17.2163 6.04228 17.3395 6.1245 17.4432 6.22822C17.5469 6.33194 17.6292 6.45513 17.6851 6.59072C17.7411 6.7263 17.7698 6.87161 17.7694 7.01829ZM20.9392 8.15125C20.8684 6.65592 20.5269 5.33136 19.4314 4.24006C18.3359 3.14876 17.0155 2.8072 15.5202 2.73223C13.979 2.64476 9.35976 2.64476 7.81861 2.73223C6.32744 2.80304 5.00288 3.14459 3.90742 4.23589C2.81195 5.32719 2.47456 6.65175 2.39959 8.14708C2.31212 9.68823 2.31212 14.3075 2.39959 15.8487C2.4704 17.344 2.81195 18.6686 3.90742 19.7599C5.00288 20.8512 6.32327 21.1927 7.81861 21.2677C9.35976 21.3552 13.979 21.3552 15.5202 21.2677C17.0155 21.1969 18.3401 20.8553 19.4314 19.7599C20.5227 18.6644 20.8642 17.344 20.9392 15.8487C21.0267 14.3075 21.0267 9.6924 20.9392 8.15125ZM18.9482 17.5023C18.7898 17.9038 18.5506 18.2686 18.2453 18.5738C17.9401 18.879 17.5754 19.1183 17.1738 19.2767C15.9451 19.764 13.0294 19.6516 11.6715 19.6516C10.3136 19.6516 7.39375 19.7599 6.16916 19.2767C5.7676 19.1183 5.40289 18.879 5.09765 18.5738C4.79241 18.2686 4.55316 17.9038 4.39475 17.5023C3.90742 16.2735 4.01988 13.3578 4.01988 12C4.01988 10.6421 3.91158 7.72223 4.39475 6.49763C4.55316 6.09608 4.79241 5.73136 5.09765 5.42612C5.40289 5.12089 5.7676 4.88164 6.16916 4.72323C7.39791 4.23589 10.3136 4.34835 11.6715 4.34835C13.0294 4.34835 15.9492 4.24006 17.1738 4.72323C17.5754 4.88164 17.9401 5.12089 18.2453 5.42612C18.5506 5.73136 18.7898 6.09608 18.9482 6.49763C19.4356 7.72639 19.3231 10.6421 19.3231 12C19.3231 13.3578 19.4356 16.2777 18.9482 17.5023Z" fill="white"/>
</svg>
