<svg width="40" height="40" viewBox="0 0 40 40" fill="none" xmlns="http://www.w3.org/2000/svg">
<g clip-path="url(#clip0_18942_36430)">
<g clip-path="url(#clip1_18942_36430)">
<circle cx="20" cy="20" r="20" fill="white"/>
<path fill-rule="evenodd" clip-rule="evenodd" d="M23.3327 22.75L28.2494 27.5833L27.5827 28.25L22.7494 23.3333C21.5181 24.3896 19.9548 24.9795 18.3327 25C14.6508 25 11.666 22.0152 11.666 18.3333C11.666 14.6514 14.6508 11.6666 18.3327 11.6666C22.0146 11.6666 24.9994 14.6514 24.9994 18.3333C24.9789 19.9554 24.389 21.5187 23.3327 22.75ZM12.4993 18.3333C12.4993 21.555 15.111 24.1666 18.3327 24.1666C19.8798 24.1666 21.3635 23.552 22.4575 22.4581C23.5514 21.3641 24.166 19.8804 24.166 18.3333C24.166 15.1116 21.5543 12.5 18.3327 12.5C15.111 12.5 12.4993 15.1116 12.4993 18.3333Z" fill="#07768D"/>
</g>
</g>
<defs>
<clipPath id="clip0_18942_36430">
<rect width="40" height="40" rx="20" fill="white"/>
</clipPath>
<clipPath id="clip1_18942_36430">
<rect width="40" height="40" fill="white"/>
</clipPath>
</defs>
</svg>
