<svg width="24" height="24" viewBox="0 0 24 24" fill="none" xmlns="http://www.w3.org/2000/svg">
<path d="M20.0877 7.6519C20.1014 7.84107 20.1014 8.03065 20.1014 8.22024C20.1014 14.0002 15.7018 20.6602 7.66143 20.6602C5.28101 20.6664 2.94948 19.9848 0.947266 18.6973C1.29784 18.7361 1.6504 18.7542 2.0031 18.7515C3.97089 18.7564 5.883 18.0984 7.43102 16.8836C6.51869 16.867 5.63434 16.5658 4.90145 16.0222C4.16857 15.4786 3.62376 14.7197 3.3431 13.8515C3.61631 13.8946 3.89236 13.9171 4.16893 13.919C4.55713 13.9178 4.94363 13.8679 5.31935 13.7702C4.32938 13.5696 3.43934 13.0325 2.80031 12.2502C2.16128 11.468 1.81262 10.4887 1.81352 9.47857V9.42482C2.41937 9.76279 3.09652 9.95282 3.78977 9.9794C2.86179 9.36059 2.20501 8.41091 1.9535 7.32426C1.70199 6.23761 1.87472 5.09593 2.43643 4.13232C3.53463 5.48404 4.90466 6.58986 6.45769 7.37808C8.01072 8.16629 9.71208 8.6193 11.4514 8.70774C11.3815 8.37895 11.3452 8.04388 11.3431 7.70774C11.3432 6.83049 11.6071 5.97353 12.1004 5.24813C12.5937 4.52273 13.2937 3.96238 14.1095 3.63983C14.9253 3.31729 15.8192 3.24744 16.6752 3.43936C17.5312 3.63127 18.3098 4.0761 18.9098 4.71607C19.8889 4.52752 20.8279 4.17026 21.6848 3.66024C21.3589 4.67072 20.6755 5.52753 19.7627 6.06982C20.6311 5.97024 21.4798 5.74146 22.2806 5.39107C21.682 6.26264 20.9406 7.02698 20.0877 7.6519Z" fill="white"/>
</svg>
